<?xml version="1.0" standalone="no"?>
<!DOCTYPE svg PUBLIC "-//W3C//DTD SVG 20010904//EN"
 "http://www.w3.org/TR/2001/REC-SVG-20010904/DTD/svg10.dtd">
<svg version="1.0" xmlns="http://www.w3.org/2000/svg"
 width="862.000000pt" height="456.000000pt" viewBox="0 0 862.000000 456.000000"
 preserveAspectRatio="xMidYMid meet">

<g transform="translate(0.000000,456.000000) scale(0.100000,-0.100000)"
fill="#000000" stroke="none">
<path d="M2583 4489 c-76 -14 -203 -88 -275 -159 -77 -76 -92 -114 -78 -194
10 -53 74 -193 109 -238 30 -37 97 -52 240 -52 l124 -1 59 105 c32 58 81 149
108 202 72 141 110 165 475 294 l150 53 -435 -1 c-239 0 -454 -4 -477 -9z"/>
<path d="M3760 3455 c-127 -178 -230 -331 -228 -338 4 -20 302 -486 309 -487
4 0 50 51 102 113 l94 113 -42 109 -43 110 137 88 c75 49 145 94 155 101 18
11 259 457 251 464 -5 5 -423 51 -467 52 l-36 0 -232 -325z"/>
<path d="M2867 3397 c-110 -26 -171 -44 -159 -48 10 -4 107 -8 215 -10 145 -3
196 -1 193 7 -3 7 -10 30 -17 53 -9 32 -17 41 -33 40 -12 -1 -101 -20 -199
-42z"/>
</g>
</svg>
